<?xml version="1.0" encoding="utf-8"?>
<!DOCTYPE svg PUBLIC "-//W3C//DTD SVG 20010904//EN" "http://www.w3.org/TR/2001/REC-SVG-20010904/DTD/svg10.dtd">
<svg version="1.0" xmlns="http://www.w3.org/2000/svg" width="1000px" height="1000px" viewBox="0 0 1000 1000" preserveAspectRatio="xMidYMid meet">
 <g fill="#ffffff">
  <path d="M0 500 l0 -500 500 0 500 0 0 500 0 500 -500 0 -500 0 0 -500z m509.1 243.6 c11.8 -4.8 24.1 -17.2 38 -38.1 4 -6.1 10.4 -14.2 14.3 -18 19.6 -19.4 50.8 -32.7 91 -38.6 12 -1.7 19.4 -1.9 86.6 -1.9 81.6 0 81.5 0 94.8 -6.5 17.3 -8.6 32.3 -24.8 43.4 -47 9.6 -19.2 15.5 -39.6 18.3 -63 1.2 -10.2 1.5 -25.7 1.5 -73.1 l0 -60 5.8 -1.1 c13.2 -2.5 22.9 -9.9 28.9 -22.1 l3.8 -7.6 0 -91.6 0 -91.6 -3.8 -7.6 c-2.5 -5.2 -5.3 -9.1 -8.8 -12.2 -2.8 -2.5 -5.5 -4.6 -6 -4.6 -0.5 0 -0.9 -15.8 -0.9 -36.5 0 -30.5 -0.3 -37.1 -1.5 -39.5 -2.7 -5.1 -8.3 -5.1 -11 0 -1.2 2.4 -1.5 8.7 -1.5 36.3 l0 33.4 -4.7 0.7 c-2.7 0.3 -8.6 0.3 -13.3 0 l-8.5 -0.7 -3.8 -6.3 c-12.8 -21.7 -32.9 -37.9 -52.2 -41.9 -10.6 -2.2 -628.4 -2.2 -639 0 -19.2 4 -40 20.8 -52.6 42.4 l-3.4 5.8 -9.6 0.7 c-5.3 0.3 -11.7 0.3 -14.3 0 l-4.6 -0.7 0 -33.4 c0 -27.6 -0.3 -33.9 -1.5 -36.3 -2.7 -5.1 -8.3 -5.1 -11 0 -1.2 2.4 -1.5 9 -1.5 39.5 0 20.7 -0.4 36.5 -0.9 36.5 -0.5 0 -3.2 2.1 -6 4.6 -3.5 3.1 -6.3 7 -8.8 12.2 l-3.8 7.6 0 91.5 0 91.6 3.2 6.7 c1.7 3.7 5 8.7 7.3 11.2 5.4 5.9 16.1 11.3 24 12.2 l6 0.7 0 60.1 c0 47.4 0.3 62.9 1.5 73.1 6.1 52 29.8 94.2 61.7 109.9 13.3 6.6 13.2 6.6 94.8 6.6 79.3 0 82.9 0.2 106.5 5.5 39 8.8 69 27.2 82.5 50.5 12.4 21.6 29 37.8 42.9 42 4.8 1.5 10.5 1 16.2 -1.4z"/>
  <path d="M489.4 724.4 c-8.5 -5.7 -15.7 -14.6 -25.4 -31.4 -8.4 -14.6 -29.5 -32.7 -49.9 -43 -17.6 -8.7 -42 -16 -67.8 -20.1 -13.1 -2.1 -17.9 -2.3 -92.3 -2.8 l-78.5 -0.6 -6.3 -3.4 c-16.6 -9 -33.3 -34.6 -40.6 -62.1 -5.8 -21.8 -5.8 -22.4 -6.3 -82.2 l-0.5 -55.8 3.6 0 c3.5 0 3.6 0.1 3.6 3.8 0 5.7 2.8 21.7 5.5 31.7 18.2 67.2 72.9 119.2 141 134.1 17.3 3.7 34.9 5 50 3.6 41 -3.9 77.6 -19.5 107.9 -46 10.3 -9.1 7.7 -11.3 39.6 33.6 l27.5 38.7 27.3 -38.2 c26.7 -37.6 27.3 -38.3 30.7 -38.3 2.6 0 4.6 1.1 9.2 5.1 13.3 11.7 31 22.9 47 29.8 48.3 20.9 95.7 21.1 144.1 0.7 44.6 -18.9 82.4 -57.8 99.9 -103 6.8 -17.6 12.3 -40.6 12.3 -51.7 0 -3.8 0.1 -3.9 3.6 -3.9 l3.6 0 -0.5 55.8 c-0.5 59.8 -0.5 60.4 -6.3 82.2 -7.5 28.4 -24.5 53.9 -41.6 62.5 l-7.1 3.5 -69.6 0 c-38.3 0 -75 0.5 -81.5 1 -39.3 3.3 -75.6 14.3 -101.1 30.8 -16.4 10.5 -26.5 20.7 -37.9 37.9 -9 13.5 -17.1 23.1 -23 27.1 -6.5 4.3 -14.3 4.5 -20.2 0.6z"/>
  <path d="M292.2 552 c-29.2 -3.7 -58 -17.9 -79.1 -38.9 -29.4 -29.4 -42.6 -64.2 -40.8 -108.1 1.4 -32.8 11.8 -59.6 32.9 -84.7 19.4 -23.2 47 -39.3 78.8 -46 12.1 -2.5 44.9 -2.5 57 0 56.7 12 97.6 52.8 109.5 109.2 2.3 10.8 3.1 34.5 1.6 47.2 -3.7 32.1 -17.2 59.5 -40.8 82.9 -18.2 18.3 -40.5 30.2 -67.8 36.4 -10.4 2.4 -39.1 3.5 -51.3 2z m31.6 -69.6 c17.7 -3.6 32.6 -12.9 44.3 -27.4 11.5 -14.4 17.5 -34.7 15 -51.1 -4.9 -31.2 -28.4 -56 -59.3 -62.3 -9.7 -2 -13.9 -2 -23.6 0 -29.7 6.1 -52.5 29 -58.7 58.9 -1.9 9.4 -1.9 13.7 0.1 23.3 6 29.5 28.7 52.2 58.4 58.6 8.7 1.9 14.6 1.9 23.8 0z"/>
  <path d="M670 552.4 c-54.7 -6.7 -100.2 -43.9 -116.3 -95 -5.2 -16.5 -6.2 -23.5 -6.2 -44.9 0 -22.3 1 -29.3 7 -47.2 15.5 -46.5 54.5 -80.4 104.5 -91 12.1 -2.5 44.9 -2.5 57 0 50.1 10.6 89 44.5 104.5 91 4.9 14.9 6.6 24.4 7.2 40.7 0.9 22.9 -2.1 41.7 -9.8 60.9 -14.8 37.1 -47.4 67.4 -85.4 79.4 -14.7 4.6 -23 5.9 -41.5 6.2 -9.6 0.2 -19.1 0.1 -21 -0.1z m28.8 -70 c29.6 -6 52.6 -29 58.6 -58.6 2 -9.7 2 -13.9 0 -23.6 -6.1 -29.6 -29.1 -52.6 -58.6 -58.6 -9.7 -2 -13.9 -2 -23.6 0 -29.6 6.1 -52.6 29.1 -58.6 58.6 -2 9.7 -2 13.9 0 23.6 6.1 29.5 28.7 52.3 58.4 58.6 8.7 1.9 14.6 1.9 23.8 0z"/>
  <path d="M122.3 308.8 c0.3 -82.6 0.6 -94.3 2.1 -101.8 2.1 -10.9 5.1 -21.9 7.7 -29.2 l2.1 -5.8 88 0 c54.1 0 91.6 0.4 97.6 1 48.5 5.2 86.9 20.7 111.2 45 5.6 5.5 10 11 12.5 15.5 15.1 27.6 32.5 44.8 49.8 49.5 15.9 4.3 35.8 -11.4 58.1 -45.7 11.1 -17.3 23.2 -28.4 42.1 -39.2 18.5 -10.5 41 -17.9 71 -23.3 11.6 -2.1 14.8 -2.2 106.6 -2.6 l94.6 -0.3 2.1 5.8 c2.7 7.3 5.7 18.4 7.8 29.3 1.5 7.5 1.8 19.2 2.1 101.8 l0.4 93.2 -3.4 0 -3.4 0 -0.6 -7.7 c-1.8 -21.8 -10.8 -49.5 -23.1 -71.2 -5.7 -10 -18.4 -27.8 -23 -32 -5 -4.7 -4.5 -5.7 19.8 -35.3 l22.4 -27.3 -91.7 -0.3 c-61.2 -0.2 -95.2 0.1 -102.6 0.8 -60 6 -112.3 39.3 -143.5 91.3 -12.8 21.5 -22.7 51 -24.6 74 l-0.7 7.7 -3.7 0 -3.7 0 -0.7 -7.7 c-1.9 -23 -11.8 -52.5 -24.6 -74 -31.2 -52 -83.5 -85.3 -143.5 -91.3 -7.4 -0.7 -41.4 -1 -102.6 -0.8 l-91.6 0.3 21.8 26.5 c20.3 24.8 21.8 26.8 21.8 30.6 0.1 2.9 -0.5 4.6 -2 6 -4.2 3.8 -16.5 21.1 -22.6 31.8 -12.2 21.3 -21 48.7 -22.9 70.9 l-0.7 7.7 -3.4 0 -3.4 0 0.4 -93.2z"/>
  <path d="M89.2 376.3 c-1.8 -0.9 -4.3 -3 -5.5 -4.7 l-2.2 -3.1 -0.3 -92.5 c-0.2 -88.7 -0.1 -92.6 1.6 -96 2.8 -5.2 8.4 -8 15.9 -8 3.8 0 7.6 0.7 9.8 1.7 4.4 2.1 4.5 4.4 1 18.5 -5.8 22.6 -5.7 22.1 -6.2 107.1 l-0.4 78.7 -5.2 0 c-2.9 0 -6.7 -0.8 -8.5 -1.7z"/>
  <path d="M896.7 299.4 c-0.5 -85.2 -0.4 -84.6 -6.2 -107.2 -3.3 -13.3 -3.3 -17.5 0 -19 1.4 -0.7 5.4 -1.2 8.8 -1.2 7.5 0 13.1 2.8 15.8 8 1.8 3.3 1.9 7.8 1.9 94.8 0 82.3 -0.2 91.7 -1.6 94.8 -2.3 4.9 -6.7 7.7 -13 8.2 l-5.3 0.4 -0.4 -78.8z"/>
 </g>
 <g fill="#2e0724">
  <path d="M493 748.6 c-15.5 -3.2 -32.4 -18.9 -46 -42.6 -13.5 -23.3 -43.5 -41.7 -82.5 -50.5 -23.6 -5.3 -27.2 -5.5 -106.5 -5.5 -81.6 0 -81.5 0 -94.8 -6.6 -17.3 -8.5 -32.4 -24.8 -43.4 -46.9 -9.6 -19.2 -15.5 -39.6 -18.3 -63 -1.2 -10.2 -1.5 -25.7 -1.5 -73.1 l0 -60.1 -6 -0.7 c-7.9 -0.9 -18.6 -6.3 -24 -12.2 -2.3 -2.5 -5.6 -7.5 -7.3 -11.2 l-3.2 -6.7 0 -94.6 0 -94.5 3.8 -7.6 c2.5 -5.2 5.3 -9.1 8.8 -12.2 2.8 -2.5 5.5 -4.6 6 -4.6 0.5 0 0.9 -15.8 0.9 -36.5 0 -39.7 0.1 -40.9 5.5 -43.3 3.3 -1.5 5.7 -1.5 9 0 5.3 2.4 5.5 3.9 5.5 40.1 l0 33.5 3.7 0.4 c2 0.3 7.1 0.2 11.3 0 l7.5 -0.4 3.4 -5.9 c9.1 -15.7 24.2 -30.4 38.3 -37.3 14.3 -7.1 -12.1 -6.6 336.8 -6.6 348.9 0 322.5 -0.5 336.8 6.5 14.2 7.1 28.4 20.8 37.9 36.9 l3.8 6.4 6.5 0.4 c3.6 0.3 8.2 0.3 10.3 0 l3.7 -0.4 0 -33.5 c0 -36.2 0.2 -37.7 5.5 -40.1 3.3 -1.5 5.7 -1.5 9 0 5.4 2.4 5.5 3.6 5.5 43.3 0 20.7 0.4 36.5 0.9 36.5 0.5 0 3.2 2.1 6 4.6 3.5 3.1 6.3 7 8.8 12.2 l3.8 7.6 0 94.6 0 94.6 -3.8 7.6 c-6 12.2 -15.7 19.6 -28.9 22.1 l-5.8 1.1 0 60 c0 47.4 -0.3 62.9 -1.5 73.1 -6.1 52.1 -29.8 94.2 -61.7 110 -13.3 6.5 -13.2 6.5 -94.8 6.5 -67.2 0 -74.6 0.2 -86.6 1.9 -40.2 5.9 -71.4 19.2 -91 38.6 -3.9 3.8 -10.3 11.9 -14.3 18 -21 31.6 -38.5 43.9 -57.1 40.1z m13.6 -27.8 c5.9 -4 14 -13.6 23 -27.1 11.4 -17.2 21.5 -27.4 37.9 -37.9 25.5 -16.5 61.8 -27.5 101.1 -30.8 6.5 -0.5 43.2 -1 81.5 -1 l69.6 0 7.1 -3.5 c17.1 -8.6 34.1 -34.1 41.6 -62.5 5.8 -21.7 5.8 -22.5 6.1 -79.5 0.1 -29.1 0.1 -51.4 -0.1 -49.5 -2.3 20 -5.7 34.1 -12.1 51 -27.2 71.6 -97.6 119.9 -174.6 120 -42.8 0 -87.4 -15.9 -119.1 -42.7 -3.8 -3.2 -7.7 -6.4 -8.7 -7.1 -1.6 -1.2 -4.2 2.2 -30.6 39.2 -27.1 38.2 -28.9 40.4 -30.3 38.6 -0.8 -1.1 -13.9 -19.5 -29 -40.9 l-27.5 -38.9 -2.7 2.1 c-1.4 1.2 -5.7 4.7 -9.5 7.8 -47.8 39.4 -115.7 52.2 -175.1 32.9 -47.6 -15.4 -87.9 -50 -110.7 -94.9 -7.8 -15.4 -15.3 -39.7 -17.5 -56.6 -0.5 -4.4 -1.2 -9.3 -1.4 -11 -0.2 -1.6 -0.3 20.9 -0.1 50 0.3 57 0.3 57.8 6.1 79.5 7.3 27.5 24 53.1 40.6 62.1 l6.3 3.4 78.5 0.6 c74.4 0.5 79.2 0.7 92.3 2.8 25.8 4.1 50.2 11.4 67.8 20.1 20.4 10.3 41.5 28.4 49.9 43 9.7 16.8 16.9 25.7 25.4 31.4 5.1 3.4 8.4 3.3 14.2 -0.6z m-166.1 -173.8 c33.7 -7.6 62.4 -25.9 82.2 -52.4 34.2 -46 36.2 -109 5 -156.9 -20.4 -31.3 -51.7 -52.4 -89.7 -60.4 -11.8 -2.4 -39.2 -2.4 -51 0 -38.2 8 -69.9 29.6 -90.2 61.2 -20.4 31.7 -26.9 72.4 -17.3 108.3 6.8 25.5 17.8 44.5 36.6 63.3 21.1 21 49.8 35.2 79.1 38.9 11.3 1.4 34.8 0.4 45.3 -2z m373 0.5 c40.5 -8.4 74.2 -32.9 93.9 -67.9 12.5 -22.4 18.6 -48.2 17.3 -73.6 -3.2 -63.8 -48 -115.3 -111.7 -128.7 -11.8 -2.4 -39.2 -2.4 -51 0 -49.9 10.5 -89 44.5 -104.5 91 -5.7 17.2 -7 25.2 -7 44.2 0 18.2 1.2 26.1 6.2 41.9 16.1 51.1 61.6 88.2 116.3 95 7.3 0.9 32.7 -0.3 40.5 -1.9z m-584.9 -171.5 c5.3 -26.8 17.4 -53.8 34 -76 4 -5.2 8.1 -10.4 9.3 -11.4 1.1 -1.1 2.1 -2.3 2.1 -2.8 0 -1.6 -47.3 -58.7 -48.1 -58.2 -0.5 0.3 -0.8 39.1 -0.8 86.2 0.1 53.3 0.5 82.9 1 78.2 0.5 -4.1 1.6 -11.3 2.5 -16z m372.8 15.3 c1.9 -23 11.8 -52.5 24.6 -74 30.9 -51.5 82.6 -84.7 142.2 -91.2 6.2 -0.7 45.5 -1.1 107.8 -1.1 l98 0 0 -2.9 c0 -7.5 -4.9 -29.9 -9.2 -41.4 l-2.1 -5.8 -91.6 0.3 c-88.7 0.4 -92 0.5 -103.6 2.6 -30 5.4 -52.5 12.8 -71 23.3 -18.9 10.8 -31 21.9 -42.1 39.2 -14.4 22.2 -28.3 37.1 -40 42.8 -24.2 12 -51 -4.9 -73.9 -46.6 -2.5 -4.5 -6.9 -10 -12.5 -15.5 -24.3 -24.3 -62.7 -39.8 -111.2 -45 -6 -0.6 -42.6 -1 -94.6 -1 l-85 0 -2.1 5.7 c-4.2 11.5 -9.1 33.9 -9.1 41.4 l0 2.9 98 0 c62.3 0 101.6 0.4 107.8 1.1 59.6 6.5 111.3 39.7 142.2 91.2 12.8 21.5 22.7 51 24.6 74 0.4 4.2 1 7.7 1.4 7.7 0.4 0 1 -3.5 1.4 -7.7z m372.8 -163.5 c-0.5 -0.5 -11.7 12.4 -24.9 28.6 l-24.1 29.5 2.5 2.3 c4.5 4.1 17.3 22 22.9 31.9 12.3 21.7 21.1 48.7 23.2 71.4 0.4 4.4 0.8 -30.4 1 -77.4 0.1 -47 -0.2 -85.9 -0.6 -86.3z m-773.9 68.5 c0.5 -85.1 0.4 -84.5 6.2 -107.3 1.4 -5.6 2.5 -10.4 2.3 -10.5 -1.8 -1.6 -7.4 -3.5 -10 -3.5 -4.6 0 -10.7 3.8 -13 8 -1.7 3.4 -1.8 7.3 -1.6 93 l0.3 89.5 2.2 3.1 c2.4 3.4 7.5 6.3 11 6.4 l2.2 0 0.4 -78.7z m807.8 75.7 c6.2 -4.5 5.9 -0.2 5.9 -97.2 0 -84.1 -0.1 -88.5 -1.9 -91.8 -2.1 -4.1 -8.3 -8 -12.8 -8 -3.6 0 -8.3 1.8 -8.3 3.2 0 0.5 1.1 5.5 2.5 11 5.8 22.6 5.7 22.1 6.2 107.1 l0.4 78.9 2.6 -0.7 c1.5 -0.3 3.9 -1.5 5.4 -2.5z"/>
  <path d="M297 485.4 c-24.3 -5.2 -44.8 -22 -54.1 -44.4 -18.2 -43.5 8 -92.9 54.3 -102.4 53.9 -11.1 101 38.9 87.3 92.5 -9.7 37.8 -49.5 62.5 -87.5 54.3z"/>
  <path d="M672 485.4 c-19.9 -4.2 -36.7 -15.8 -47.8 -32.7 -28.7 -44.2 -3.8 -103.4 48 -114.1 40.2 -8.3 79.8 18 88.2 58.6 10.7 52 -36.7 99.4 -88.4 88.2z"/>
 </g>
</svg>