<?xml version="1.0" encoding="utf-8"?>
<!-- Generator: Adobe Illustrator 24.0.1, SVG Export Plug-In . SVG Version: 6.00 Build 0)  -->
<svg version="1.0" id="Capa_1" xmlns="http://www.w3.org/2000/svg" xmlns:xlink="http://www.w3.org/1999/xlink" x="0px" y="0px"
	 viewBox="0 0 850.39 850.39" style="enable-background:new 0 0 850.39 850.39;" xml:space="preserve">
<style type="text/css">
	.st0{fill:#4b545c;}
</style>
<g>
	<path class="st0" d="M420.4,695.67c-12.4-2.56-25.92-15.12-36.8-34.08c-10.8-18.64-34.8-33.36-66-40.4
		c-18.88-4.24-21.76-4.4-85.2-4.4c-65.28,0-65.2,0-75.84-5.28c-13.84-6.8-25.92-19.84-34.72-37.52
		c-7.68-15.36-12.4-31.68-14.64-50.4c-0.96-8.16-1.2-20.56-1.2-58.48v-48.08l-4.8-0.56c-6.32-0.72-14.88-5.04-19.2-9.76
		c-1.84-2-4.48-6-5.84-8.96l-2.56-5.36v-75.68v-75.6l3.04-6.08c2-4.16,4.24-7.28,7.04-9.76c2.24-2,4.4-3.68,4.8-3.68
		s0.72-12.64,0.72-29.2c0-31.76,0.08-32.72,4.4-34.64c2.64-1.2,4.56-1.2,7.2,0c4.24,1.92,4.4,3.12,4.4,32.08v26.8l2.96,0.32
		c1.6,0.24,5.68,0.16,9.04,0l6-0.32l2.72-4.72c7.28-12.56,19.36-24.32,30.64-29.84c11.44-5.68-9.68-5.28,269.44-5.28
		s258-0.4,269.44,5.2c11.36,5.68,22.72,16.64,30.32,29.52l3.04,5.12l5.2,0.32c2.88,0.24,6.56,0.24,8.24,0l2.96-0.32v-26.8
		c0-28.96,0.16-30.16,4.4-32.08c2.64-1.2,4.56-1.2,7.2,0c4.32,1.92,4.4,2.88,4.4,34.64c0,16.56,0.32,29.2,0.72,29.2
		s2.56,1.68,4.8,3.68c2.8,2.48,5.04,5.6,7.04,9.76l3.04,6.08v75.68v75.68l-3.04,6.08c-4.8,9.76-12.56,15.68-23.12,17.68l-4.64,0.88
		v48c0,37.92-0.24,50.32-1.2,58.48c-4.88,41.68-23.84,75.36-49.36,88c-10.64,5.2-10.56,5.2-75.84,5.2
		c-53.76,0-59.68,0.16-69.28,1.52c-32.16,4.72-57.12,15.36-72.8,30.88c-3.12,3.04-8.24,9.52-11.44,14.4
		C449.28,688.87,435.28,698.71,420.4,695.67L420.4,695.67z M431.28,673.43c4.72-3.2,11.2-10.88,18.4-21.68
		c9.12-13.76,17.2-21.92,30.32-30.32c20.4-13.2,49.44-22,80.88-24.64c5.2-0.4,34.56-0.8,65.2-0.8h55.68l5.68-2.8
		c13.68-6.88,27.28-27.28,33.28-50c4.64-17.36,4.64-18,4.88-63.6c0.08-23.28,0.08-41.12-0.08-39.6c-1.84,16-4.56,27.28-9.68,40.8
		c-21.76,57.28-78.08,95.92-139.68,96c-34.24,0-69.92-12.72-95.28-34.16c-3.04-2.56-6.16-5.12-6.96-5.68
		c-1.28-0.96-3.36,1.76-24.48,31.36c-21.68,30.56-23.12,32.32-24.24,30.88c-0.64-0.88-11.12-15.6-23.2-32.72l-22-31.12l-2.16,1.68
		c-1.12,0.96-4.56,3.76-7.6,6.24c-38.24,31.52-92.56,41.76-140.08,26.32c-38.08-12.32-70.32-40-88.56-75.92
		c-6.24-12.32-12.24-31.76-14-45.28c-0.4-3.52-0.96-7.44-1.12-8.8c-0.16-1.28-0.24,16.72-0.08,40c0.24,45.6,0.24,46.24,4.88,63.6
		c5.84,22,19.2,42.48,32.48,49.68l5.04,2.72l62.8,0.48c59.52,0.4,63.36,0.56,73.84,2.24c20.64,3.28,40.16,9.12,54.24,16.08
		c16.32,8.24,33.2,22.72,39.92,34.4c7.76,13.44,13.52,20.56,20.32,25.12C424,676.63,426.64,676.55,431.28,673.43L431.28,673.43z
		 M298.4,534.39c26.96-6.08,49.92-20.72,65.76-41.92c27.36-36.8,28.96-87.2,4-125.52c-16.32-25.04-41.36-41.92-71.76-48.32
		c-9.44-1.92-31.36-1.92-40.8,0c-30.56,6.4-55.92,23.68-72.16,48.96c-16.32,25.36-21.52,57.92-13.84,86.64
		c5.44,20.4,14.24,35.6,29.28,50.64c16.88,16.8,39.84,28.16,63.28,31.12C271.2,537.11,290,536.31,298.4,534.39L298.4,534.39z
		 M596.8,534.79c32.4-6.72,59.36-26.32,75.12-54.32c10-17.92,14.88-38.56,13.84-58.88c-2.56-51.04-38.4-92.24-89.36-102.96
		c-9.44-1.92-31.36-1.92-40.8,0c-39.92,8.4-71.2,35.6-83.6,72.8c-4.56,13.76-5.6,20.16-5.6,35.36c0,14.56,0.96,20.88,4.96,33.52
		c12.88,40.88,49.28,70.56,93.04,76C570.24,537.03,590.56,536.07,596.8,534.79z M128.88,397.59c4.24-21.44,13.92-43.04,27.2-60.8
		c3.2-4.16,6.48-8.32,7.44-9.12c0.88-0.88,1.68-1.84,1.68-2.24c0-1.28-37.84-46.96-38.48-46.56c-0.4,0.24-0.64,31.28-0.64,68.96
		c0.08,42.64,0.4,66.32,0.8,62.56C127.28,407.11,128.16,401.35,128.88,397.59z M427.12,409.83c1.52-18.4,9.44-42,19.68-59.2
		c24.72-41.2,66.08-67.76,113.76-72.96c4.96-0.56,36.4-0.88,86.24-0.88h78.4v-2.32c0-6-3.92-23.92-7.36-33.12l-1.68-4.64
		l-73.28,0.24c-70.96,0.32-73.6,0.4-82.88,2.08c-24,4.32-42,10.24-56.8,18.64c-15.12,8.64-24.8,17.52-33.68,31.36
		c-11.52,17.76-22.64,29.68-32,34.24c-19.36,9.6-40.8-3.92-59.12-37.28c-2-3.6-5.52-8-10-12.4c-19.44-19.44-50.16-31.84-88.96-36
		c-4.8-0.48-34.08-0.8-75.68-0.8h-68l-1.68,4.56c-3.36,9.2-7.28,27.12-7.28,33.12v2.32h78.4c49.84,0,81.28,0.32,86.24,0.88
		c47.68,5.2,89.04,31.76,113.76,72.96c10.24,17.2,18.16,40.8,19.68,59.2c0.32,3.36,0.8,6.16,1.12,6.16
		C426.32,415.99,426.8,413.19,427.12,409.83L427.12,409.83z M725.36,279.03c-0.4-0.4-9.36,9.92-19.92,22.88l-19.28,23.6l2,1.84
		c3.6,3.28,13.84,17.6,18.32,25.52c9.84,17.36,16.88,38.96,18.56,57.12c0.32,3.52,0.64-24.32,0.8-61.92
		C725.92,310.47,725.68,279.35,725.36,279.03L725.36,279.03z M106.24,333.83c0.4-68.08,0.32-67.6,4.96-85.84
		c1.12-4.48,2-8.32,1.84-8.4c-1.44-1.28-5.92-2.8-8-2.8c-3.68,0-8.56,3.04-10.4,6.4c-1.36,2.72-1.44,5.84-1.28,74.4l0.24,71.6
		l1.76,2.48c1.92,2.72,6,5.04,8.8,5.12h1.76L106.24,333.83z M752.48,394.39c4.96-3.6,4.72-0.16,4.72-77.76
		c0-67.28-0.08-70.8-1.52-73.44c-1.68-3.28-6.64-6.4-10.24-6.4c-2.88,0-6.64,1.44-6.64,2.56c0,0.4,0.88,4.4,2,8.8
		c4.64,18.08,4.56,17.68,4.96,85.68l0.32,63.12l2.08-0.56C749.36,396.15,751.28,395.19,752.48,394.39L752.48,394.39z"/>
	<path class="st0" d="M263.6,485.11c-19.44-4.16-35.84-17.6-43.28-35.52c-14.56-34.8,6.4-74.32,43.44-81.92
		c43.12-8.88,80.8,31.12,69.84,74C325.84,471.91,294,491.67,263.6,485.11z"/>
	<path class="st0" d="M563.6,485.11c-15.92-3.36-29.36-12.64-38.24-26.16c-22.96-35.36-3.04-82.72,38.4-91.28
		c32.16-6.64,63.84,14.4,70.56,46.88C642.88,456.15,604.96,494.07,563.6,485.11L563.6,485.11z"/>
</g>
</svg>
